<svg xmlns="http://www.w3.org/2000/svg" width="1024" height="1024" viewBox="0 0 1024 1024" role="img" aria-labelledby="title desc">
  <title id="title">商家助手 - 方形图标（私域向导×店铺）</title>
  <desc id="desc">以指南针与店铺融合的抽象图形，强调方向感与运营管理的聚合入口。</desc>
  <rect x="96" y="96" width="832" height="832" rx="168" fill="#0B1F3A"/>
  <circle cx="512" cy="520" r="258" fill="none" stroke="#FFFFFF" stroke-width="26" opacity="0.85"/>
  <circle cx="512" cy="520" r="194" fill="#FFFFFF" opacity="0.10"/>
  <path d="M512 362 610 520 512 678 414 520 512 362Z" fill="#FFFFFF" opacity="0.18"/>
  <path d="M512 394 586 520 512 646 438 520 512 394Z" fill="none" stroke="#FFFFFF" stroke-width="18" stroke-linejoin="round"/>
  <path d="M520 450 662 520 520 590 450 520 520 450Z" fill="#FFB020"/>
  <path d="M350 440 394 324h236l44 116" fill="none" stroke="#FFFFFF" stroke-width="24" stroke-linecap="round" stroke-linejoin="round"/>
  <path d="M392 456c0-16 14-30 30-30h180c16 0 30 14 30 30v212c0 16-14 30-30 30H422c-16 0-30-14-30-30V456Z" fill="#FFFFFF"/>
  <path d="M448 626v-88" fill="none" stroke="#0B1F3A" stroke-width="32" stroke-linecap="round"/>
  <path d="M512 626V560" fill="none" stroke="#0B1F3A" stroke-width="32" stroke-linecap="round"/>
  <path d="M576 626V510" fill="none" stroke="#FF8A00" stroke-width="32" stroke-linecap="round"/>
  <path d="M512 430v-34" fill="none" stroke="#FF8A00" stroke-width="18" stroke-linecap="round"/>
  <circle cx="512" cy="520" r="14" fill="#FF8A00"/>
</svg>

