<svg xmlns="http://www.w3.org/2000/svg" width="1024" height="1024" viewBox="0 0 1024 1024" role="img" aria-labelledby="title desc">
  <title id="title">商家助手 - 圆形图标（安全护盾×私域向导）</title>
  <desc id="desc">圆形底内置护盾轮廓与指南针指向，体现可靠安全与私域运营引导。</desc>
  <circle cx="512" cy="512" r="416" fill="#0B1F3A"/>
  <path d="M512 246c132 74 256 74 256 74v214c0 152-104 282-256 334-152-52-256-182-256-334V320s124 0 256-74Z" fill="none" stroke="#FFFFFF" stroke-width="26" stroke-linejoin="round" opacity="0.85"/>
  <circle cx="512" cy="540" r="192" fill="#FFFFFF" opacity="0.10"/>
  <circle cx="512" cy="540" r="226" fill="none" stroke="#FFFFFF" stroke-width="22" opacity="0.55"/>
  <path d="M534 422 676 540 534 658 416 540 534 422Z" fill="#FFB020" opacity="0.95"/>
  <path d="M490 486 598 540 490 594 436 540 490 486Z" fill="#FFFFFF" opacity="0.18"/>
  <circle cx="512" cy="540" r="14" fill="#FF8A00"/>
  <path d="M512 362v-34" fill="none" stroke="#FF8A00" stroke-width="18" stroke-linecap="round"/>
  <path d="M424 720h176" fill="none" stroke="#FFFFFF" stroke-width="18" stroke-linecap="round" opacity="0.35"/>
</svg>

