<svg xmlns="http://www.w3.org/2000/svg" width="1024" height="1024" viewBox="0 0 1024 1024" role="img" aria-labelledby="title desc">
  <title id="title">商家助手 - 方形图标（店铺×数据×管家）</title>
  <desc id="desc">抽象店铺外形融合数据柱状图与管家领带元素，深蓝底，金色点缀。</desc>
  <rect x="96" y="96" width="832" height="832" rx="168" fill="#0B1F3A"/>
  <path d="M270 420c0-24 20-44 44-44h396c24 0 44 20 44 44v342c0 24-20 44-44 44H314c-24 0-44-20-44-44V420Z" fill="#FFFFFF" opacity="0.08"/>
  <path d="M304 446c0-18 14-32 32-32h352c18 0 32 14 32 32v314c0 18-14 32-32 32H336c-18 0-32-14-32-32V446Z" fill="none" stroke="#FFFFFF" stroke-width="24" stroke-linejoin="round"/>
  <path d="M290 438 338 310h348l48 128" fill="none" stroke="#FFFFFF" stroke-width="24" stroke-linecap="round" stroke-linejoin="round"/>
  <path d="M350 310c28 34 62 52 104 52s76-18 104-52c28 34 62 52 104 52s76-18 104-52" fill="none" stroke="#FFB020" stroke-width="24" stroke-linecap="round" stroke-linejoin="round"/>
  <path d="M366 720v-130" fill="none" stroke="#FFB020" stroke-width="36" stroke-linecap="round"/>
  <path d="M450 720V566" fill="none" stroke="#FFB020" stroke-width="36" stroke-linecap="round"/>
  <path d="M534 720V610" fill="none" stroke="#FFB020" stroke-width="36" stroke-linecap="round"/>
  <path d="M618 720V528" fill="none" stroke="#FFB020" stroke-width="36" stroke-linecap="round"/>
  <path d="M512 506c34 0 62 28 62 62 0 24-14 46-34 56l12 112c0 10-8 18-18 18h-44c-10 0-18-8-18-18l12-112c-20-10-34-32-34-56 0-34 28-62 62-62Z" fill="#FFFFFF"/>
  <path d="M512 590 478 628l34 28 34-28-34-38Z" fill="#FF8A00"/>
  <path d="M430 498h164" fill="none" stroke="#FFFFFF" stroke-width="20" stroke-linecap="round" opacity="0.55"/>
</svg>

